<svg xmlns="http://www.w3.org/2000/svg" width="623.558" height="478.313" viewBox="0 0 623.558 478.313"><path fill="#DC5E48" d="M586.324 69.007H245.08c-20.56 0-37.228 16.668-37.228 37.216v248.174c0 20.57 16.67 37.24 37.228 37.24h196.473l81.228 81.22c7.284 7.276 19.057 7.276 26.316 0l-.34-81.22h37.568c20.55 0 37.233-16.67 37.233-37.24V106.223c0-20.548-16.682-37.216-37.233-37.216z"/><path fill="#FFF" d="M37.233 0h341.244c20.56 0 37.228 16.668 37.228 37.216V285.39c0 20.57-16.67 37.24-37.228 37.24H182.005l-81.228 81.22c-7.283 7.276-19.056 7.276-26.315 0l.34-81.22h-37.57C16.683 322.63 0 305.96 0 285.39V37.216C0 16.668 16.683 0 37.233 0z"/></svg>