<svg xmlns="http://www.w3.org/2000/svg" xmlns:xlink="http://www.w3.org/1999/xlink" width="631.903" height="547.246" viewBox="0 0 631.903 547.246"><path fill-rule="evenodd" clip-rule="evenodd" fill="#3D3D3D" d="M161.44 6h309.023l154.512 267.623-154.512 267.623H161.44L6.928 273.623z"/><path fill-rule="evenodd" clip-rule="evenodd" fill="#FFF" d="M181.913 505.786L47.873 273.623 181.913 41.46H449.99l134.04 232.163-134.04 232.163z"/><path fill-rule="evenodd" clip-rule="evenodd" fill="#D8D5D0" d="M445.44 497.906H186.463l-64.746-112.14-64.743-112.143 64.743-112.142 64.746-112.14h258.98l64.746 112.14 64.743 112.144-64.744 112.142z"/><defs><path id="a" d="M0 0h631.903v547.246H0z"/></defs><clipPath id="b"><use xlink:href="#a" overflow="visible"/></clipPath><path clip-path="url(#b)" fill="#FFF" d="M524.32 297.597l-1.472-5.618-.548 3.91 2.02 1.706zm9.87 37.706l-1.42-5.42-1.27.945 2.69 4.475zM183.78 471.177c-2.803 2.03-6.335 2.63-9.725 2.266l-1.02 1.21-32.358-56.044c2.224-3.09 7.228-9.37 8.382-12.64 1.615-4.575 1.39-12.688 2.335-17.805 2.658-14.356 6.183-29.67 11.99-43.114-4.78-12.38.347-26.192 8.638-35.76 2.693-14.1 6.207-28.296 12.233-41.38 2.108-4.58 6.82-9.9 8.348-14.196 1.293-3.642 1.542-8.35 2.63-12.207 4.387-15.54 13.214-29.918 30.566-32.088l2.92-4.593 23.622-7.874 1 .84a34.49 34.49 0 0 1 9.073-6.197c-1.978-11.79-1.88-24.156-1.732-36.073-5.832-7.264-12.91-29.378-4.786-36.415l-.337-3.04c-3.526-35.735 8.426-45.56 40.175-58.15l3.394-.576c19.26-3.778 44.605 5.505 51.453 29.12 30.815 7.537 30.162 22.702 3.07 33.92.402 10.716 1.056 6.115-3.54 15.85 1.17 8.637-.66 12.02-2.635 19.806-.486 1.917-.286 4.793-.578 6.852-.88 6.217-3.297 9.346-5.484 14.74-1.504 3.713-1.525 6.522-4.278 9.9l.498.995c3.77.067 7.857.43 11.605.204.967-.058 1.367-.65 2.25-1.04a56.642 56.642 0 0 1 6.6-2.456c12.47-3.734 24.07-1.615 31.598 9.718 25.336 8.508 32.596 38.232 34.89 61.817 11.827-18.253 53.227-32.063 71.296-17.204 15.936-7.773 34.444-13.974 52.41-12.092l26.645 46.148-39.143 67.795-1.264-4.832-2.89 4.188 1.922 4.51-4.134 7.16c-14.743 3.666-27.2 2.94-41.966 2.742l-7.182 1.643c-11.313 2.237-23.527 3.025-34.57-.91l-15.652 5.612c-9.498 17.473-26.666 26.642-45.57 30.68l-5.452 30.37c14.535 23.856 28.668 48.783 37.657 75.325H186.462l-4.743-8.215a265.496 265.496 0 0 1 2.06-18.515"/><defs><path id="c" d="M0 0h631.903v547.246H0z"/></defs><clipPath id="d"><use xlink:href="#c" overflow="visible"/></clipPath><path clip-path="url(#d)" fill-rule="evenodd" clip-rule="evenodd" fill="#015CAB" d="M372.722 423.765c10.18 16.605 18.553 31.55 25.12 44.83L188.75 479.33c.748-6.343 1.816-13.375 3.34-20.528-2.408 1.695-5.892 2.58-8.662 2.213-1.665 6.14-5.952 8.49-14.543 4.862 1.76 4.112-2.348 8.798-10.355 5.666.748 3.214-6.312 8.088-14.7 2.443l-4.142-2.833-2.165-.355c-9.282 1.05-18.658-14.493-5.76-23.288l3.332-1.886c4.394-19.854 11.43-22.373 19.9-37.983.57-17.795 9.782-52.61 15.005-62.545-4.425-8.16-3.298-21.295 7.61-33.04 4.895-26.367 11.792-44.988 20.69-55.86 3.894-26.737 14.216-40.415 30.964-41.034l3.38-5.31 18.412-6.137 3.036 2.55c3.49-5.633 10.43-9.72 15.308-10.8-2.14-7.418-3.033-21.58-2.675-42.488-5.323-2.813-13.984-33.027-4.02-29.42-5.32-27.28 4.54-40.73 27.14-42.943 39.842-10.572 56.742-3.904 54.085 20.436 3.522 10.84 2.345 13.574 3.388 27.065l-3.397 7.194c1.495 9.696.653 14.25-2.395 19.01-.156 10.022-2.11 16.962-5.862 20.82-.323 4.81-2.276 8.522-5.86 11.135l4.097 8.195 16.703.294c16.628-8.474 28.353-6.716 35.172 5.275 21.562 5.895 32.82 30.434 33.773 73.613l6.506-3.69c2.834-28.993 59.997-38.32 68.38-22.938 57.44-29.92 92.643-10.343 90.946 44.613l-.036 27.71c-2.768 12.878-12.066 28.985-42.475 25.43l-13.91-53.14 1.726-6.2c-.48-5.278-1.205-3.107-18.064 3.636l4 4.126-.72 5.143 7.646 6.47-3.187 3.376 5.98 7.885-4.04 3.275 5.504 6.762-4.24 3.16 4.06 6.764-2.8 4.063 2.797 6.567-21.812 3.395-18.98-.9c-17.235 4.564-30.914 4.687-41.035.367l-19.987 7.164c-7.938 16.252-23.44 26.396-46.5 30.43l-6.586 36.655z"/><path clip-path="url(#d)" fill-rule="evenodd" clip-rule="evenodd" fill="#FFF" d="M342.058 107.103l1.822 17.182c-5.395-2.997-8.9-2.863-10.513.404l2.02 14.347c2.424 4.867 1.28 8.034-3.434 9.503 3.643 2.058 4.922 4.753 3.838 8.084.933 4.857.123 8.36-2.422 10.512.19 19.965-14.837 21.785-45.078 5.458-5.34-3.46-9.818-9.967-11.89-21.464-14.22 7.502-25.743-41.627-2.46-17.954l1.817 2.833 6.744-1.5c-1.094-5.546-.174-10.033 2.76-13.463l-2.024-17.182c23.495-14.233 43.103-13.154 58.823 3.237m-69.337 53.768c-.502 18.635 2.396 39.86 8.695 63.674 4.55-.455 10.95-3.757 19.2-9.906 2.648-11.538 2.245-21.51-1.21-29.916-7.98.895-16.875-7.056-26.685-23.852m53.48 38.01c-4.02 5.98-15.742 16.445-35.16 31.39-4.514 6.853-6.8 17.614-6.857 32.283 12.1-3.35 23.285-4.97 33.55-4.867.964-10.07 7.006-26.576 18.126-49.513-12.17 18.243-21.94 30.057-29.31 35.442-2.105-7.634-4.78-12.955-8.024-15.964 4.704.195 9.737 4.426 11.767 9.346 12.485-14.308 14.976-25.4 15.91-38.116"/><path clip-path="url(#d)" fill-rule="evenodd" clip-rule="evenodd" fill="#1285EC" d="M352.908 196.99c-9.19 8.972-21.275 21.83-32.563 64.607-5.604-.208-29.562 3.57-71.87 11.328l-6.995-10.362c-.55-26.562 2.565-39.75 6.962-52.39-5.86 1.486-9.892 1.648-14.482 5.244-6.05 10.416-10.233 28.545-12.72 51.916l1.623 9.832c-2.996 20.263-1.35 40.228 4.938 59.893l-6.96-7.693c-2.352 9.06-.722 21.813 4.89 38.264l-7.09-8.956c-6.127 17.38-7.593 31.425-4.395 42.133l79.503-33.784c-.462-6.48 6.48-14.19 12.65-8.482 1.805-7.39 7.63-10.142 10.953-6.17l1.39-3.395c-7.25-.77-14.333-19.365.924-18.203-9.76-7.757-10.515-19.82-8.695-42.44 4.83 21.125 10.57 31.383 17.22 30.774-5.55-5.99-7.99-17.347-7.33-34.072 4.633 16.272 9.763 23.11 15.39 20.517-5.447-5.88-7.89-15.04-7.328-27.477 4.323 6.665 7.498 9.474 9.526 8.427-1.818-6.632-1.208-16.157 1.832-28.577 1.587-35.438 47.312-75.594 12.63-60.933"/><path clip-path="url(#d)" fill-rule="evenodd" clip-rule="evenodd" fill="#FFF" d="M251.606 212.117c-5.216 22.7-6.063 39.163-2.54 49.387l5.032 5.585 24.832-2.77c-1.313-17.75-4.1-23.8-7.433-34.547-5.203-.71-9.675 3.042-13.414 11.26-3.852-4.18-5.422-17.427-1.94-31.46l-4.537 2.543z"/><path clip-path="url(#d)" fill-rule="evenodd" clip-rule="evenodd" fill="#FFF" d="M269.56 200.818c-3.546 1.445-8.34 5.637-9.94 9.077-1.908 11.065-2.133 15.434 0 19.663 3.024-5.023 5.17-10.585 11.23-7.325-2.2-7.027-2.63-14.166-1.29-21.415m-46.514 25.562c-4.32 12.645-6.394 32.826-6.22 60.542l-2.15-8.858c-2.973 1.005-5.687 11.49-8.14 31.46l-11.367-10.878-9.804 9.803c2.017-22.43 6.642-36.226 13.873-41.395l6.22 12.44c.48-37.817 6.343-55.523 17.585-53.115m-49.818 111.88c-2.58-26.027 36.602-25.012 36.23 7.568-11.934-12.806-25.15-16.655-36.23-7.567m231.593-61.77c-2.357-15.165-6.164-27.627-11.42-37.386 5.646 4.408 10.263 11.718 13.854 21.928-.253-23.06-8.453-56.763-25.273-55.495-25.05 14.167-31.62 45.635-19.712 94.4 3.71-4.272 6.774-6.298 10.013-3.3 3.088-5.05 6.985-6.124 9.89-3.302 3.01-7.858 17.52-10.657 18.87-8.788.607-3.84 1.088-5.356 3.78-8.058"/><path clip-path="url(#d)" fill-rule="evenodd" clip-rule="evenodd" fill="#015CAB" d="M301.416 122.248a12.62 12.62 0 0 1 7.496-4.833c8.388.104 14.78-.054 16.634 5.516l1.087 11.265-4.793-10.483-10.237-3.066-10.187 1.604zm22.29 18.502c-9.518.782-11.688 3.384-6.51 7.807-2.038-3.6.133-6.203 6.51-7.806m-11.648 19.434c2.783-2.24 5.965-2.51 9.795-3.777l4.42.963 4.088.21 2.57 5.504c-6.83-3.383-10.758-2.578-20.87-2.9m3.245 8.73c8.54-4.89 13.344-4.695 14.41.59-3.425-1.096-8.228-1.292-14.41-.59m-41.77-23.407l-1.564-8.607-5.98-3.355v6.71l1.684-2.28c1.25 6.22 3.203 8.73 5.862 7.532"/><path clip-path="url(#d)" fill-rule="evenodd" clip-rule="evenodd" fill="#015CAB" d="M321.1 129.12l-2.807.312c-.862-5.156-9.132-5.224-13.292-.94-.39-5.862 16.29-7.158 16.1.627"/><path clip-path="url(#d)" fill="#015CAB" d="M310.285 126.87c0-1.59 1.336-2.876 2.985-2.876s2.985 1.287 2.985 2.876c0 1.588-1.336 2.876-2.985 2.876s-2.985-1.288-2.985-2.876"/><path clip-path="url(#d)" fill-rule="evenodd" clip-rule="evenodd" fill="#015CAB" d="M288.963 179.13c-2 6.442-3.078 17.987-3.233 34.633-4.433-19.737-5.728-33.775-3.886-42.112l7.12 7.48z"/><path clip-path="url(#d)" fill-rule="evenodd" clip-rule="evenodd" fill="#A7ACAF" d="M474.477 262.443l11.298 17.56 35.888-14.372c12.896-4.2 14.03 3.17 16.336 9.808l-4.518 8.306 13.3 48.198c21.493-.55 23.85-25.45 7.07-74.69-4.74-17.487-19.82-21.05-45.237-10.69l-34.14 15.883zm-14.397-4.52l19.42 38.47 2.196 47.626c-10.68 2.74-21.55 2.373-32.607-1.1l-6.23-27.11-90.33 35.32-3.828-4.913 74.74-32.974 8.427-39.57c5.4-19.42 14.8-24.67 28.21-15.752"/><path clip-path="url(#d)" fill="#FFF" d="M183.01 340.587c12.542 4.912 17.587 17.906 17.587 17.906-1.01 14.15-5.488 22.798-20.654 38.136 15.36-4.913 25.56-20.677 30.607-47.29.918 28.657-18.798 44.326-25.837 54.56 8.387 2.343 10.518 5.61 11.51 10.76l-13.368 7.01s-2.827 8.797-4.095 9.948c2.11 6.76 1.21 6.61 2.97 14.483 4.458 4.91 8.366 5.656 11.724 2.24 2.013 5.453-1.77 8.605-8.758 10.116-4.315-1.214-7.494-3.053-12.13-6.174L168.288 436c-1.287-1.218-1.96-.977-2.015.72l2.133 16.843 10.48 6.868c2.51 2.784-4.39 6.184-9.2 3.256l-8.705-6.868-3.084-17.078c-1.035-1-1.634-.648-1.8 1.058l1.867 17.21 8.332 7.92c1.51 3.556-5.01 5.507-8.15 3.025l-7.324-6.502-3.2-17.456c-.73-1.402-1.47-1.208-2.215.583l2.61 17.8 5.147 4.914c4.694 5.278-3.724 7.667-8.768 2.994l-4.273-3.842-2.12-20.92c2.977-15.443 10.295-20.697 21.83-40.74 5.454-30.13 13.79-62.622 23.182-65.198"/><path clip-path="url(#d)" fill-rule="evenodd" clip-rule="evenodd" fill="#A7ACAF" d="M379.704 298.004c-2.316-1.84-4.435-.214-6.354 4.875-3.44-2.873-6.198-1.987-8.272 2.655-2.614-3.68-6.353-.133-7.095 3.698-7.415 3.905-6.922 9.11 1.48 15.613l12.955-17.832 7.04 15.12c-1.746-10.528-1.663-18.572.246-24.13m43.5-22.764c-6.616 1.025-12.7 4.623-17.81 8.327-5.052 10.915-5.322 21.56 2.195 32.46l13.23-6.313c-4.67-12.133-4.88-22.01 2.383-34.474m-24.433 12.956c-4.803.55-8.195 2.92-13.308 6.607-3.84 7.41-3.477 21.98 3.486 28.575l12.977-5.5c-5.033-8.01-7.86-17.33-3.155-29.682m-46.893 67.84l8.805 8.127c34.106-14.62 60.3-19.524 82.818-19.65l-5.197-15.38c-17.387 1.602-44.75 10.074-86.426 26.904m133.483-59.66l5.94 43.613 11.648 1.425-4.3-7.412 3.832-3.183-3.9-6.95 2.862-2.463-3.75-6.662 2.564-3.012-3.687-7.094 3.02-4.05z"/><path clip-path="url(#d)" fill-rule="evenodd" clip-rule="evenodd" fill="#FFF" d="M348.99 337.36c-11.222-5.9-11.382-.198-29.883-3.15-7.457-.64-6.02 10.568 1.33 11.373 4.028-1.173 8.193-.66 12.494 1.54 3.725-4.126 9.72-5.02 12.805-3.24l3.257-6.522zm-3.52 11.31l2.423 13.416 5.925 8.168 12.346 4.825c3.54 4.67-.135 12.417-9.94 12.417 1.344 3.61-4.335 6.894-13.28 5.63-.12 3.203-9.24 4.193-14.962 4.485-4.912 4.413-21.093-3.105-27.67-7.97-2.52-8.94-3.693-11.95-4.044-21.086-.42-7.525 6.826-10.323 9.625-5.302l3.343 19.405 13.787 8.087c1.3.494 2.058.27 2.27-.673l-13.677-9.515-3.204-18.41c-.98-7.26 7.667-9.78 10.045-5.317l2.923 18.845 15.372 10.695c1.286.42 1.818.15 1.596-.81l-14.045-11.108-3.202-18.027c.28-6.002 7.683-8.102 10.34-3.5l3.205 18.706 15.446 10.34c1.38.17 1.894-.13 1.54-.895l-13.944-12.546-2.593-17.245c1.23-6.016 9.256-5.4 10.377-2.62"/><path clip-path="url(#d)" fill-rule="evenodd" clip-rule="evenodd" fill="#A7ACAF" d="M193.938 419.95l-2.815 22.097 112.033-45.944c-8.972-5.194-12.494-12.624-10.566-22.29l-98.652 46.136zm-58.232 29.406c-11.842 6.927-8.452 20.446.948 16.27l-.948-16.27z"/><path clip-path="url(#d)" fill-rule="evenodd" clip-rule="evenodd" fill="#015CAB" d="M294.746 379.604L205.82 419.14c-4.156 2.518-5.528 6.343-4.116 11.476 1.253-3.87 4.164-6.74 8.73-8.607l86.06-34.176-1.748-8.23z"/><path clip-path="url(#d)" fill-rule="evenodd" clip-rule="evenodd" fill="#A7ACAF" d="M370.648 316.13l-20.54 25.71 26.228-12.072z"/><path clip-path="url(#d)" fill="#FFF" d="M312.782 127.026a1.097 1.097 0 1 1 2.194 0 1.097 1.097 0 0 1-2.194 0"/><path clip-path="url(#d)" fill-rule="evenodd" clip-rule="evenodd" fill="#FFF" d="M494.484 295.545l6.655 2.275 12.512-2.87-6-2.664zm9.333 39.727l2.376 4.676 18.354-3.426-4.443-4.305zm-.68-10.672l2.377 4.675 18.35-3.425-4.44-4.306zm-1.607-10.21l2.378 4.677 18.352-3.426-4.44-4.303zm-1.714-9.798l2.376 4.677 18.353-3.428-4.44-4.306z"/><path clip-path="url(#d)" fill-rule="evenodd" clip-rule="evenodd" fill="#015CAB" d="M423.763 279.248l-42.327 23.264-1.112 5.122 42.145-20.544zm-1.11 14.26l-41.217 19.804 1.478 4.38 40.11-16.844zm29.982 4.018l5.006 38.893 16.3.853-9.366-5.218-3.935-30.595z"/><path clip-path="url(#d)" fill="#015CAB" d="M295.164 109.95l-32.768 13.312c-5.12-29.697-4.076-43.862 34.687-58.878 18.243-5.122 41.667 4.606 48.98 25.417 8.872 2.01 40.495 14.585.303 27.19-12.726-8.67-32.553 1.04-51.202-7.04"/><path clip-path="url(#d)" fill-rule="evenodd" clip-rule="evenodd" fill="#015CAB" d="M328.316 150.666l.722 5.622-2.405-.6z"/><path clip-path="url(#d)" fill-rule="evenodd" clip-rule="evenodd" fill="#E2E2DD" d="M339.96 91.765c-17.732-1.472-35.32 5.025-47.674 13.58 23.72 4.11 32.96-2.88 51.69-2.833 6.616.017 10.198-.755 16.915 1.872-4.034-5.248-11.01-9.454-20.93-12.62"/><path clip-path="url(#d)" fill-rule="evenodd" clip-rule="evenodd" fill="#015CAB" d="M337.458 143.995c-2.3 1.46-5.05 1.07-8.248-1.174l-9.658 5.3c1.677 1.845 6.933 1.68 9.155 5.298.506-1.3 3.277-1.78 8.316-1.44l.435-7.982z"/><path clip-path="url(#d)" fill="#015CAB" d="M187.22 497.906c.217-4.615.653-11.1 1.528-18.538 66.846-23.167 136.545-26.757 209.093-10.772 5.39 10.898 9.556 20.664 12.508 29.31H187.22z"/><path clip-path="url(#d)" fill-rule="evenodd" clip-rule="evenodd" fill="#E2E2DD" d="M306.96 68.545c11.106-.222 21.36 5.795 30.76 18.05-14.99-2.535-27.91.672-38.76 9.623-.658-16.535 2.01-25.76 8-27.673"/></svg>