<svg xmlns="http://www.w3.org/2000/svg" width="88.579" height="96.176" viewBox="6.035 -8.75 88.579 96.176"><path fill="#3E3E3E" stroke="#FFF" stroke-miterlimit="10" d="M19.77 80.172a8.823 8.823 0 0 0 4.412-16.465V22.833a4.406 4.406 0 0 0-4.412-4.422 4.416 4.416 0 0 0-4.412 4.423v40.874a8.814 8.814 0 0 0-4.41 7.642 8.823 8.823 0 0 0 8.822 8.822zm0-2.206a6.618 6.618 0 0 1-2.175-12.868c-.02-.12-.03-.245-.03-.37V42.68c0-1.207.987-2.21 2.206-2.21 1.23 0 2.207.99 2.207 2.21v22.047c0 .125-.01.25-.03.37a6.62 6.62 0 0 1 4.442 6.25 6.623 6.623 0 0 1-6.62 6.62zm0 6.617c-7.31 0-13.234-5.926-13.234-13.234 0-3.92 1.704-7.44 4.412-9.866v-38.65A8.82 8.82 0 0 1 19.77 14c4.865 0 8.824 3.956 8.824 8.835v38.648a13.205 13.205 0 0 1 4.412 9.865c-.002 7.31-5.928 13.235-13.236 13.235z"/><path fill="#3E3E3E" stroke="#FFF" stroke-miterlimit="10" d="M74.727 37.02l-6.21-3.588 3.533-.947a2 2 0 0 0 1.414-2.448 1.996 1.996 0 0 0-2.448-1.414l-7.398 1.98-5.493-3.17 6.533-1.75a2 2 0 0 0 .26-3.773l-5.763-2.436 4.464-2.577 7.395 1.98a2.002 2.002 0 0 0 2.45-1.414 2 2 0 0 0-1.413-2.448l-3.532-.946 6.21-3.587a2 2 0 0 0-2-3.464l-6.208 3.584.944-3.53a2 2 0 0 0-1.414-2.45 1.993 1.993 0 0 0-2.448 1.415l-1.98 7.393-4.463 2.577.772-6.207a2 2 0 0 0-3.19-1.842l-4.988 3.772V6.58l5.412-5.413a2 2 0 0 0-2.828-2.828L49.754.922V-6.25a2 2 0 0 0-4 0V.924l-2.587-2.588a2 2 0 1 0-2.828 2.828l5.414 5.416v5.15L40.76 7.953a1.998 1.998 0 0 0-3.138 2.113l1.752 6.54-5.493-3.17L31.9 6.038a2 2 0 1 0-3.863 1.035l.946 3.53-6.21-3.586a2 2 0 0 0-2 3.464l6.21 3.584-3.53.946a2 2 0 0 0 1.036 3.863l7.394-1.98 5.492 3.17-6.53 1.75a1.997 1.997 0 0 0-.26 3.773l5.76 2.436-4.463 2.578-7.392-1.98a2 2 0 1 0-1.035 3.86l3.527.948-6.208 3.584a2 2 0 1 0 2 3.462l6.213-3.586-.947 3.534A2 2 0 1 0 31.9 41.46l1.983-7.396 4.46-2.575-.77 6.207a2 2 0 0 0 3.19 1.842l4.987-3.772v5.153l-5.415 5.416a2 2 0 1 0 2.828 2.828l2.587-2.587v7.173a2 2 0 0 0 4 0v-7.17l2.585 2.584c.392.39.9.586 1.414.586s1.02-.195 1.413-.586a2 2 0 0 0 0-2.828l-5.413-5.413v-5.15l4.994 3.775a1.993 1.993 0 0 0 2.322.063 2 2 0 0 0 .814-2.177l-1.754-6.535 5.494 3.172 1.98 7.393a1.998 1.998 0 0 0 2.45 1.414 2 2 0 0 0 1.414-2.45L66.52 36.9l6.21 3.584a1.997 1.997 0 0 0 2.73-.732 1.998 1.998 0 0 0-.733-2.732zm-16.73-13.695l-4.772 1.278-1.48-.854 3.067-1.772 3.185 1.347zm-4.622-9.323l-.56 4.512-3.066 1.77v-3.54l3.625-2.742zm-10.385.657l2.76 2.086v3.542l-1.48-.854-1.28-4.775zm-5.493 9.515l4.77-1.278 1.477.853-3.065 1.77-3.183-1.345zm4.623 9.322l.56-4.513 3.07-1.772v3.54l-3.63 2.745zm10.388-.655l-2.758-2.085v-3.54l1.477.854 1.28 4.772z"/><path fill="#3E3E3E" stroke="#FFF" stroke-miterlimit="10" d="M53.846 67.155c0 10.923 9.015 19.77 20.134 19.77 11.12 0 20.135-8.847 20.135-19.77 0-14.003-15.626-23.096-16.887-38.684v-.648a3.25 3.25 0 0 0-3.248-3.248 3.25 3.25 0 0 0-3.247 3.248v.65c-1.3 15.588-16.887 24.68-16.887 38.683zm22.927 8.08c2.806-.65 5.038-3.04 5.688-5.65a2.61 2.61 0 0 1 2.562-2.144 2.607 2.607 0 0 1 2.598 2.598c0 1.87-1.572 4.717-3.715 6.845-2.105 2.08-4.612 3.548-6.677 3.548-1.43 0-2.598-1.207-2.598-2.635 0-1.274.922-2.34 2.143-2.56z"/></svg>