<!-- Generator: Adobe Illustrator 15.1.0, SVG Export Plug-In . SVG Version: 6.00 Build 0)  -->
<!DOCTYPE svg PUBLIC "-//W3C//DTD SVG 1.1//EN" "http://www.w3.org/Graphics/SVG/1.1/DTD/svg11.dtd">
<svg version="1.1" id="Layer_1" xmlns="http://www.w3.org/2000/svg" xmlns:xlink="http://www.w3.org/1999/xlink" x="0px" y="0px"
	 width="88.579px" height="96.176px" viewBox="6.035 -8.75 88.579 96.176" enable-background="new 6.035 -8.75 88.579 96.176"
	 xml:space="preserve">
<g id="Icons_new_Arranged_Names">
	<g id="_x38_2_Thermometer_Half_Full">
		<path id="Oval_245" fill="#3E3E3E" stroke="#FFFFFF" stroke-miterlimit="10" d="M19.77,80.172c4.872,0,8.823-3.95,8.823-8.823
			c0-3.266-1.774-6.117-4.411-7.642V22.833c0-2.442-1.958-4.422-4.412-4.422c-2.437,0-4.412,1.978-4.412,4.422v40.874
			c-2.638,1.524-4.411,4.376-4.411,7.642C10.947,76.222,14.897,80.172,19.77,80.172z M19.77,77.966
			c-3.654,0-6.617-2.964-6.617-6.617c0-2.892,1.856-5.351,4.442-6.251c-0.02-0.12-0.03-0.245-0.03-0.37V42.68
			c0-1.207,0.987-2.211,2.206-2.211c1.228,0,2.206,0.99,2.206,2.211v22.047c0,0.125-0.011,0.25-0.03,0.37
			c2.585,0.898,4.442,3.359,4.442,6.251C26.387,75.002,23.422,77.966,19.77,77.966z M19.77,84.583
			c-7.309,0-13.234-5.926-13.234-13.234c0-3.92,1.704-7.439,4.412-9.865V22.835c0-4.894,3.951-8.835,8.823-8.835
			c4.864,0,8.823,3.956,8.823,8.835v38.648c2.708,2.426,4.412,5.945,4.412,9.865C33.004,78.657,27.078,84.583,19.77,84.583z"/>
	</g>
</g>
<g id="Dibujo">
	<path fill="#3E3E3E" stroke="#FFFFFF" stroke-miterlimit="10" d="M74.727,37.02l-6.211-3.588l3.534-0.947
		c1.067-0.285,1.7-1.383,1.414-2.448c-0.284-1.065-1.384-1.705-2.448-1.414l-7.398,1.981l-5.493-3.17l6.533-1.752
		c0.825-0.221,1.419-0.94,1.478-1.793c0.059-0.852-0.43-1.647-1.217-1.979l-5.764-2.436l4.464-2.577l7.396,1.981
		c0.174,0.047,0.348,0.069,0.52,0.069c0.884,0,1.691-0.59,1.931-1.483c0.286-1.067-0.348-2.164-1.414-2.449l-3.532-0.946
		l6.211-3.586c0.957-0.553,1.285-1.775,0.733-2.732c-0.554-0.957-1.776-1.285-2.733-0.732l-6.209,3.585l0.944-3.53
		c0.286-1.067-0.348-2.164-1.414-2.449c-1.073-0.29-2.163,0.348-2.448,1.414l-1.98,7.394l-4.463,2.577l0.771-6.207
		c0.1-0.798-0.289-1.577-0.984-1.979c-0.695-0.4-1.566-0.347-2.207,0.137l-4.987,3.771V6.579l5.412-5.412
		c0.78-0.781,0.78-2.047,0-2.828c-0.781-0.781-2.047-0.781-2.828,0l-2.584,2.584V-6.25c0-1.104-0.896-2-2-2c-1.105,0-2,0.896-2,2
		v7.174l-2.587-2.588c-0.781-0.781-2.047-0.781-2.828,0c-0.781,0.78-0.781,2.047,0,2.828l5.415,5.416v5.15L40.76,7.953
		c-0.682-0.516-1.615-0.541-2.323-0.064c-0.709,0.477-1.037,1.352-0.815,2.177l1.752,6.54l-5.493-3.171l-1.983-7.396
		c-0.285-1.066-1.383-1.703-2.449-1.414c-1.067,0.286-1.7,1.383-1.414,2.449l0.946,3.531L22.77,7.019
		c-0.959-0.553-2.18-0.225-2.732,0.732c-0.552,0.957-0.225,2.18,0.732,2.732l6.21,3.585l-3.53,0.946
		c-1.067,0.286-1.7,1.383-1.414,2.449c0.239,0.894,1.047,1.483,1.931,1.483c0.171-0.001,0.346-0.022,0.519-0.069l7.394-1.981
		l5.492,3.171l-6.529,1.75c-0.825,0.221-1.419,0.941-1.477,1.794c-0.059,0.852,0.43,1.647,1.217,1.979l5.76,2.436l-4.464,2.578
		l-7.391-1.981c-1.065-0.289-2.164,0.349-2.449,1.414c-0.286,1.065,0.347,2.163,1.414,2.448l3.527,0.947l-6.208,3.584
		c-0.957,0.553-1.284,1.774-0.732,2.731c0.371,0.642,1.043,1,1.734,1c0.339,0,0.684-0.086,0.998-0.269l6.213-3.586l-0.947,3.534
		c-0.286,1.066,0.347,2.163,1.414,2.449c0.173,0.047,0.348,0.069,0.518,0.069c0.883,0,1.691-0.59,1.931-1.483l1.982-7.397
		l4.461-2.575l-0.771,6.208c-0.1,0.797,0.288,1.576,0.984,1.979c0.696,0.4,1.566,0.348,2.206-0.137l4.987-3.771v5.153l-5.415,5.415
		c-0.781,0.781-0.781,2.047,0,2.828c0.781,0.781,2.047,0.781,2.828,0l2.587-2.587v7.173c0,1.104,0.895,2,2,2c1.104,0,2-0.896,2-2
		v-7.171l2.585,2.585c0.392,0.391,0.901,0.586,1.414,0.586s1.022-0.195,1.414-0.586c0.78-0.781,0.78-2.047,0-2.828l-5.413-5.413
		v-5.151l4.994,3.776c0.355,0.269,0.779,0.405,1.206,0.405c0.39,0,0.778-0.113,1.116-0.342c0.709-0.478,1.037-1.353,0.814-2.178
		l-1.754-6.535l5.494,3.172l1.979,7.393c0.239,0.895,1.047,1.482,1.932,1.482c0.171,0,0.345-0.021,0.519-0.068
		c1.066-0.285,1.7-1.382,1.414-2.449L66.52,36.9l6.209,3.584c0.315,0.182,0.658,0.268,0.998,0.268c0.69,0,1.362-0.357,1.733-1
		C76.012,38.794,75.686,37.57,74.727,37.02z M57.997,23.325l-4.772,1.278l-1.479-0.854l3.066-1.771L57.997,23.325z M53.375,14.002
		l-0.561,4.512l-3.065,1.77v-3.539L53.375,14.002z M42.99,14.659l2.759,2.087v3.542l-1.48-0.854L42.99,14.659z M37.497,24.175
		l4.769-1.278l1.478,0.853l-3.065,1.771L37.497,24.175z M42.12,33.497l0.56-4.513l3.07-1.772v3.541L42.12,33.497z M52.508,32.842
		l-2.758-2.085v-3.54l1.477,0.854L52.508,32.842z"/>
</g>
<path fill="#3E3E3E" stroke="#FFFFFF" stroke-miterlimit="10" d="M53.846,67.155c0,10.923,9.015,19.771,20.134,19.771
	c11.12,0,20.135-8.848,20.135-19.771c0-14.003-15.626-23.096-16.887-38.684v-0.649c0-1.792-1.455-3.248-3.248-3.248
	c-1.792,0-3.247,1.455-3.247,3.248v0.649C69.434,44.06,53.846,53.152,53.846,67.155z M76.773,75.235
	c2.806-0.649,5.038-3.04,5.688-5.651c0.222-1.221,1.287-2.143,2.561-2.143c1.428,0,2.598,1.17,2.598,2.597
	c0,1.87-1.572,4.717-3.715,6.845c-2.105,2.08-4.612,3.548-6.677,3.548c-1.429,0-2.598-1.208-2.598-2.636
	C74.63,76.521,75.552,75.455,76.773,75.235z"/>
</svg>
